<svg width="12" height="8" viewBox="0 0 12 8" fill="none" xmlns="http://www.w3.org/2000/svg">
<path d="M12 4.00011C12 3.90275 11.9441 3.77337 11.8873 3.71052L8.6873 0.131385C8.53788 -0.031182 8.29583 -0.0499794 8.12172 0.114938C7.96602 0.262527 7.96211 0.550209 8.10609 0.710438L10.6748 3.57895H0.399971C0.178985 3.57895 0 3.76751 0 3.99998C0 4.2326 0.179132 4.421 0.399971 4.421H10.6748L8.10609 7.28952C7.96212 7.44974 7.9723 7.73039 8.12172 7.88487C8.27937 8.04802 8.54026 8.03348 8.6873 7.86842L11.8873 4.28944C11.9813 4.19237 11.9985 4.09882 12 3.99999V4.00011Z" fill="#3661ED"/>
</svg>
