<svg width="18" height="20" viewBox="0 0 18 20" fill="none" xmlns="http://www.w3.org/2000/svg">
<path d="M9.03348 20C7.31015 20 5.90848 18.5983 5.90848 16.875C5.90848 16.53 6.18848 16.25 6.53348 16.25C6.87848 16.25 7.15848 16.53 7.15848 16.875C7.15848 17.9092 7.99939 18.75 9.03348 18.75C10.0677 18.75 10.9085 17.9092 10.9085 16.875C10.9085 16.53 11.1885 16.25 11.5335 16.25C11.8785 16.25 12.1585 16.53 12.1585 16.875C12.1585 18.5983 10.7568 20 9.03348 20Z" fill="white"/>
<path d="M15.9085 17.5H2.15848C1.35434 17.5 0.700195 16.8459 0.700195 16.0417C0.700195 15.6149 0.886047 15.2109 1.21014 14.9333C2.47769 13.8625 3.2002 12.3059 3.2002 10.6567V8.33328C3.2002 5.11673 5.81693 2.5 9.03348 2.5C12.2502 2.5 14.8669 5.11673 14.8669 8.33328V10.6567C14.8669 12.3059 15.5894 13.8625 16.8486 14.9275C17.1811 15.2109 17.3669 15.6149 17.3669 16.0417C17.3669 16.8459 16.7128 17.5 15.9085 17.5ZM9.03348 3.75C6.50601 3.75 4.4502 5.80582 4.4502 8.33328V10.6567C4.4502 12.6741 3.5661 14.5792 2.02527 15.8817C1.99597 15.9067 1.9502 15.9584 1.9502 16.0417C1.9502 16.1549 2.04526 16.25 2.15848 16.25H15.9085C16.0219 16.25 16.1169 16.1549 16.1169 16.0417C16.1169 15.9584 16.071 15.9067 16.0435 15.8833C14.501 14.5792 13.6169 12.6741 13.6169 10.6567V8.33328C13.6169 5.80582 11.5611 3.75 9.03348 3.75Z" fill="white"/>
<path d="M9.03348 3.75C8.68848 3.75 8.40848 3.47 8.40848 3.125V0.625C8.40848 0.279999 8.68848 0 9.03348 0C9.37848 0 9.65848 0.279999 9.65848 0.625V3.125C9.65848 3.47 9.37848 3.75 9.03348 3.75Z" fill="white"/>
</svg>
