<svg width="18" height="18" viewBox="0 0 18 18" fill="none" xmlns="http://www.w3.org/2000/svg">
<path d="M2.72541 0H5.74875C7.24883 0 8.47416 1.22387 8.47416 2.72185V5.74124C8.47416 7.23936 7.2487 8.46309 5.74875 8.46309H2.72541C1.22533 8.46309 0 7.23922 0 5.74124V2.72185C0 1.22373 1.22547 0 2.72541 0V0ZM12.2512 9.53691H15.2746C16.7752 9.53691 18 10.7608 18 12.2588V15.2781C18 16.7763 16.7745 18 15.2746 18H12.2512C10.7512 18 9.52584 16.7761 9.52584 15.2781V12.2588C9.52584 10.7606 10.7513 9.53691 12.2512 9.53691V9.53691ZM15.2746 10.7636H12.2512C11.4291 10.7636 10.7541 11.4377 10.7541 12.2588V15.2782C10.7541 16.0993 11.4291 16.7734 12.2512 16.7734H15.2746C16.0967 16.7734 16.7722 16.0993 16.7722 15.2782V12.2588C16.7722 11.4377 16.0973 10.7636 15.2746 10.7636ZM2.72552 9.53691H5.74885C7.24894 9.53691 8.47427 10.7608 8.47427 12.2588V15.2781C8.47427 16.7763 7.2488 18 5.74885 18H2.72552C1.22543 18 0.000103846 16.7761 0.000103846 15.2781V12.2588C0.000103846 10.7606 1.22557 9.53691 2.72552 9.53691V9.53691ZM5.74885 10.7636H2.72552C1.90337 10.7636 1.22838 11.4377 1.22838 12.2588V15.2782C1.22838 16.0993 1.90333 16.7734 2.72552 16.7734H5.74885C6.571 16.7734 7.24599 16.0993 7.24599 15.2782V12.2588C7.24599 11.4377 6.57104 10.7636 5.74885 10.7636ZM12.2511 0.000518816H15.2744C16.7751 0.000518816 17.9999 1.22439 17.9999 2.72237V5.74176C17.9999 7.23988 16.7744 8.46361 15.2744 8.46361H12.2511C10.751 8.46361 9.5257 7.23974 9.5257 5.74176V2.72237C9.5257 1.22425 10.7512 0.000518816 12.2511 0.000518816V0.000518816ZM15.2744 1.22722H12.2511C11.429 1.22722 10.754 1.90129 10.754 2.72241V5.74179C10.754 6.56287 11.4289 7.23698 12.2511 7.23698H15.2744C16.0966 7.23698 16.7721 6.5629 16.7721 5.74179V2.72241C16.7721 1.90133 16.0972 1.22722 15.2744 1.22722V1.22722ZM5.7493 1.22722H2.72597C1.90382 1.22722 1.22883 1.90129 1.22883 2.72241V5.74179C1.22883 6.56287 1.90378 7.23698 2.72597 7.23698H5.7493C6.57145 7.23698 7.24644 6.5629 7.24644 5.74179V2.72241C7.24644 1.90133 6.57149 1.22722 5.7493 1.22722V1.22722Z"/>
</svg>
