<svg width="18" height="13" viewBox="0 0 18 13" fill="none" xmlns="http://www.w3.org/2000/svg">
<path d="M0.490519 0.000819509C0.203518 0.0219092 -0.0141565 0.268648 0.000719095 0.556087C0.0156147 0.843676 0.257485 1.06654 0.545226 1.05797H1.91827V2.30714H1.34118C1.0505 2.30773 0.814837 2.54296 0.813628 2.83364V6.10729C0.813186 6.24769 0.868491 6.38249 0.967451 6.48204C1.06641 6.58159 1.20091 6.63763 1.34117 6.63793H3.5494C3.69039 6.63851 3.82563 6.58277 3.92533 6.48307C4.02488 6.38352 4.08063 6.24813 4.08004 6.10729V4.99955H5.18053L6.00333 6.90324C6.08784 7.09526 6.27779 7.2193 6.48751 7.21915H7.54054V8.05845H6.13963C5.99878 8.05786 5.86354 8.11361 5.76385 8.21331C5.6643 8.31286 5.60855 8.44825 5.60899 8.58909V12.2406C5.60928 12.381 5.66548 12.5153 5.76503 12.6143C5.86457 12.7133 5.99937 12.7686 6.13963 12.7681H11.8641C12.0045 12.7687 12.1393 12.7133 12.2388 12.6143C12.3384 12.5153 12.3944 12.381 12.3947 12.2406V8.58909C12.3953 8.44824 12.3396 8.31286 12.24 8.21331C12.1403 8.11361 12.0051 8.05786 11.8641 8.05845H10.4632V7.21915H11.5172C11.7267 7.21885 11.9162 7.09497 12.0004 6.90324L12.8201 4.99955H13.9247V6.10729C13.9237 6.39915 14.1594 6.63673 14.4512 6.63794H16.6636C16.9556 6.63676 17.1913 6.39916 17.1901 6.10729V2.83364C17.1889 2.54339 16.954 2.30831 16.6636 2.30714H16.0855V1.05797H17.4596C17.6019 1.06106 17.7394 1.00679 17.841 0.907388C17.9428 0.807839 18 0.671565 18 0.529382C18 0.387064 17.9428 0.250937 17.841 0.151376C17.7394 0.0519742 17.6019 -0.00229918 17.4596 0.000796754H13.6554C13.6386 -8.81551e-05 13.6218 -8.81551e-05 13.6048 0.000796754C13.3178 0.0210019 13.0995 0.266708 13.1132 0.554139C13.1269 0.841434 13.3678 1.06531 13.6554 1.05795H15.0284V2.30712H14.4513C14.1611 2.3083 13.926 2.54338 13.9248 2.83361V3.94136H11.888L11.0528 1.42134C10.9798 1.20558 10.7768 1.06075 10.549 1.06208H7.4508C7.43399 1.06119 7.41718 1.06119 7.40022 1.06208C7.19315 1.08317 7.01779 1.22386 6.95218 1.42134L6.11288 3.94136H4.08013V2.83361C4.07895 2.54175 3.84151 2.30591 3.54948 2.30712H2.97549V1.05795H4.34959C4.49191 1.06104 4.62936 1.00677 4.73099 0.907366C4.83276 0.807816 4.88998 0.671542 4.88998 0.52936C4.88998 0.387041 4.83276 0.250914 4.73099 0.151354C4.62938 0.0519514 4.49193 -0.00232165 4.34959 0.000774286H0.545366C0.527225 -0.000258095 0.508938 -0.000258095 0.490651 0.000774286L0.490519 0.000819509ZM7.83392 2.11614H10.1712L10.7751 3.94138H7.22893L7.83392 2.11614ZM1.86783 3.36429H3.02307V5.58079H1.86783V3.36429ZM14.9821 3.36429H16.1332V5.58079H14.9821V3.36429ZM6.33504 4.99955H11.6695L11.1657 6.16611H6.83892L6.33504 4.99955ZM8.59802 7.21914H9.40636V8.05844H8.59802V7.21914ZM6.66747 9.11559H11.3378V11.7099H6.66747V9.11559ZM9.00166 9.75875C8.64461 9.75875 8.34611 10.0573 8.34611 10.4143C8.34611 10.7712 8.64461 11.0688 9.00166 11.0688C9.35856 11.0688 9.6572 10.7712 9.6572 10.4143C9.6572 10.0572 9.3587 9.75875 9.00166 9.75875Z"/>
</svg>
