<?xml version="1.0" encoding="UTF-8" standalone="no"?>
<!DOCTYPE svg PUBLIC "-//W3C//DTD SVG 1.1//EN" "http://www.w3.org/Graphics/SVG/1.1/DTD/svg11.dtd">
<svg width="100%" height="100%" viewBox="0 0 16 16" version="1.1" xmlns="http://www.w3.org/2000/svg" xmlns:xlink="http://www.w3.org/1999/xlink" xml:space="preserve" xmlns:serif="http://www.serif.com/" style="fill-rule:evenodd;clip-rule:evenodd;stroke-linejoin:round;stroke-miterlimit:2;">
    <g transform="matrix(0.8,0,0,0.8,0,0)">
        <circle cx="10" cy="10" r="10" style="fill:rgb(252,92,76);"/>
        <path d="M10.896,5.047L10.731,12.067L9.323,12.067L9.152,5.047L10.896,5.047ZM9.104,14.221C9.104,13.97 9.187,13.76 9.351,13.592C9.519,13.419 9.752,13.332 10.048,13.332C10.339,13.332 10.57,13.419 10.738,13.592C10.907,13.76 10.991,13.97 10.991,14.221C10.991,14.462 10.907,14.67 10.738,14.843C10.57,15.011 10.339,15.096 10.048,15.096C9.752,15.096 9.519,15.011 9.351,14.843C9.187,14.67 9.104,14.462 9.104,14.221Z" style="fill:white;fill-rule:nonzero;"/>
    </g>
</svg>
