<?xml version="1.0" encoding="UTF-8" standalone="no"?>
<!DOCTYPE svg PUBLIC "-//W3C//DTD SVG 1.1//EN" "http://www.w3.org/Graphics/SVG/1.1/DTD/svg11.dtd">
<svg width="100%" height="100%" viewBox="0 0 16 16" version="1.1" xmlns="http://www.w3.org/2000/svg" xmlns:xlink="http://www.w3.org/1999/xlink" xml:space="preserve" xmlns:serif="http://www.serif.com/" style="fill-rule:evenodd;clip-rule:evenodd;stroke-linejoin:round;stroke-miterlimit:2;">
    <g transform="matrix(0.8,0,0,0.8,0,0)">
        <circle cx="10" cy="10" r="10" style="fill:rgb(54,97,237);"/>
        <path d="M10.827,7.604L10.827,15L9.173,15L9.173,7.604L10.827,7.604ZM9.063,5.662C9.063,5.411 9.146,5.204 9.31,5.04C9.478,4.871 9.711,4.787 10.007,4.787C10.299,4.787 10.529,4.871 10.697,5.04C10.866,5.204 10.95,5.411 10.95,5.662C10.95,5.908 10.866,6.113 10.697,6.277C10.529,6.441 10.299,6.523 10.007,6.523C9.711,6.523 9.478,6.441 9.31,6.277C9.146,6.113 9.063,5.908 9.063,5.662Z" style="fill:white;fill-rule:nonzero;"/>
    </g>
</svg>
