<?xml version="1.0" encoding="UTF-8" standalone="no"?>
<!DOCTYPE svg PUBLIC "-//W3C//DTD SVG 1.1//EN" "http://www.w3.org/Graphics/SVG/1.1/DTD/svg11.dtd">
<svg width="100%" height="100%" viewBox="0 0 64 64" version="1.1" xmlns="http://www.w3.org/2000/svg" xmlns:xlink="http://www.w3.org/1999/xlink" xml:space="preserve" xmlns:serif="http://www.serif.com/" style="fill-rule:evenodd;clip-rule:evenodd;stroke-linejoin:round;stroke-miterlimit:2;">
    <g transform="matrix(2.31845,0,0,1.8726,-17.2381,-14.6154)">
        <path d="M35.04,14.64C35.04,10.868 32.566,7.805 29.519,7.805L12.956,7.805C9.909,7.805 7.435,10.868 7.435,14.64L7.435,35.147C7.435,38.919 9.909,41.982 12.956,41.982L29.519,41.982C32.566,41.982 35.04,38.919 35.04,35.147L35.04,14.64Z" style="fill:rgb(54,97,237);"/>
    </g>
    <g transform="matrix(1.79546,0,0,1.80033,10.4115,10.3961)">
        <path d="M5,8.999L13.492,8.999C13.51,8.999 13.529,8.999 13.548,8.999C15.468,8.999 17.049,7.421 17.049,5.5C17.049,3.58 15.468,2.002 13.548,2.002C12.018,2.002 10.656,3.004 10.203,4.465C10.04,4.992 10.336,5.551 10.864,5.714C11.392,5.877 11.953,5.582 12.117,5.055C12.311,4.429 12.893,3.999 13.548,3.999C14.371,3.999 15.046,4.678 15.046,5.5C15.046,6.323 14.371,7.002 13.548,7.002L13.5,7.001L5,7.001C4.447,7.001 3.999,7.449 3.999,8C3.999,8.551 4.447,8.999 5,8.999Z" style="fill:white;"/>
        <path d="M3,12.999L18.5,12.999L18.548,12.998C19.371,12.998 20.046,13.677 20.046,14.5C20.046,15.322 19.371,16.001 18.548,16.001C17.893,16.001 17.311,15.571 17.117,14.945C16.953,14.418 16.392,14.123 15.864,14.286C15.336,14.449 15.04,15.008 15.203,15.535C15.656,16.996 17.018,17.998 18.548,17.998C20.468,17.998 22.049,16.42 22.049,14.5C22.049,12.579 20.468,11.001 18.548,11.001C18.528,11.001 18.509,11.001 18.489,11.001C18.492,11.001 3,11.001 3,11.001C2.447,11.001 1.999,11.449 1.999,12C1.999,12.551 2.447,12.999 3,12.999Z" style="fill:white;"/>
        <path d="M4,16.999L9.5,16.999L9.548,16.998C10.371,16.998 11.046,17.677 11.046,18.5C11.046,19.322 10.371,20.001 9.548,20.001C8.893,20.001 8.311,19.571 8.117,18.945C7.953,18.418 7.392,18.123 6.864,18.286C6.336,18.449 6.04,19.008 6.203,19.535C6.656,20.996 8.018,21.998 9.548,21.998C11.468,21.998 13.049,20.42 13.049,18.5C13.049,16.579 11.468,15.001 9.548,15.001C9.528,15.001 9.509,15.001 9.489,15.001C9.492,15.001 4,15.001 4,15.001C3.447,15.001 2.999,15.449 2.999,16C2.999,16.551 3.447,16.999 4,16.999Z" style="fill:white;"/>
    </g>
</svg>
