<svg width="18" height="18" viewBox="0 0 18 18" fill="none" xmlns="http://www.w3.org/2000/svg">
<path d="M17.6946 0.0960107C17.5052 -0.0210788 17.2689 -0.0316986 17.0697 0.0675992L12.184 2.51041L6.02424 0.0457793C6.0152 0.0426224 6.00559 0.0419049 5.99597 0.038748C5.9733 0.0308561 5.95005 0.0246858 5.92652 0.0200941C5.89868 0.0132064 5.87027 0.0083278 5.84172 0.00531452C5.81732 0.0040231 5.79279 0.0040231 5.76839 0.00531452C5.74069 0.005745 5.713 0.00789744 5.68545 0.0117717C5.66048 0.0162198 5.6358 0.0219595 5.61155 0.0291343C5.58472 0.0363088 5.5586 0.045636 5.53306 0.0566848C5.52143 0.0611329 5.50924 0.0631419 5.49833 0.0683078L0.35544 2.63968C0.248681 2.69306 0.158993 2.775 0.0961429 2.87659C0.0332931 2.97804 1.33685e-07 3.09498 1.33685e-07 3.21437V17.3569C-0.000143353 17.5798 0.115227 17.7867 0.304643 17.9039C0.494203 18.0212 0.730842 18.0319 0.930276 17.9324L5.81602 15.4896L11.9765 17.9542C11.9848 17.9573 11.9944 17.9542 12.0029 17.9593H12.0027C12.0705 17.9845 12.1419 17.9981 12.2142 17.9998C12.3032 17.9979 12.3907 17.9776 12.4714 17.94C12.4823 17.9348 12.4939 17.94 12.5041 17.9322L17.647 15.3609V15.361C17.7535 15.3072 17.8427 15.225 17.9051 15.1234C17.9674 15.0218 18.0003 14.9048 18 14.7856V0.643016C18 0.420029 17.8845 0.212971 17.6946 0.0960102L17.6946 0.0960107ZM5.14268 14.3881L1.28551 16.3166V3.61145L5.14268 1.68292V14.3881ZM11.5713 16.4073L6.4284 14.3502V1.59252L11.5713 3.64962V16.4073ZM16.7142 14.3881L12.857 16.3166V3.61145L16.7142 1.68292V14.3881Z"/>
</svg>
