<svg width="24" height="24" viewBox="0 0 24 24" fill="none" xmlns="http://www.w3.org/2000/svg">
<path d="M23.7097 22.3033L17.8306 16.4272C19.3034 14.6298 20.111 12.3806 20.111 10.0577C20.111 4.51068 15.5992 0 10.0567 0C8.70173 0 7.38606 0.26519 6.14646 0.790649C4.94856 1.29892 3.87342 2.0233 2.95049 2.94658C2.02756 3.86987 1.30096 4.94536 0.792854 6.14361C0.267561 7.38363 0 8.69979 0 10.0552C0 15.6022 4.51187 20.1129 10.0543 20.1129C12.3789 20.1129 14.625 19.305 16.4217 17.8317L22.2959 23.7078C22.4849 23.8969 22.7353 24 23.0004 24C23.2679 24 23.5183 23.8969 23.7048 23.7078C24.0976 23.3223 24.0976 22.6912 23.7097 22.3033L23.7097 22.3033ZM18.1206 10.0554C18.1206 14.5048 14.5024 18.1218 10.057 18.1218C5.60909 18.1218 1.99331 14.5024 1.99331 10.0554C1.99331 5.60845 5.61147 1.98908 10.057 1.98908C14.5024 1.98908 18.1206 5.60845 18.1206 10.0554V10.0554Z"/>
</svg>
