<svg width="18" height="18" viewBox="0 0 18 18" fill="none" xmlns="http://www.w3.org/2000/svg">
<path d="M11.0997 17.9998H6.90034C6.65109 18.0005 6.41165 17.9024 6.23447 17.7269C6.05742 17.5514 5.9571 17.3129 5.95572 17.0636V14.884C5.76637 14.7867 5.58204 14.6801 5.40335 14.5643L3.50934 15.6541C3.2935 15.7782 3.0372 15.8117 2.79663 15.7476C2.55605 15.6834 2.35063 15.5268 2.22508 15.3117L0.125761 11.6886C0.00145194 11.4736 -0.0320746 11.2178 0.0325934 10.9779C0.0971328 10.7379 0.254463 10.5335 0.469917 10.4097L2.36843 9.31991C2.36328 9.21331 2.36064 9.10721 2.36064 9.00175C2.36064 8.89628 2.36328 8.79019 2.36843 8.68359L0.469917 7.59377C0.2542 7.47022 0.0967535 7.26582 0.0320791 7.02575C-0.0324603 6.78581 0.00119036 6.52992 0.125751 6.31486L2.22507 2.69369C2.35038 2.47874 2.55567 2.32206 2.79601 2.25787C3.03647 2.19359 3.29248 2.22711 3.50833 2.35091L5.40334 3.44073C5.58202 3.32497 5.76634 3.21837 5.95571 3.12107V0.941425C5.95571 0.69119 6.05528 0.451253 6.23258 0.274598C6.40975 0.0979405 6.65007 -0.000871637 6.90031 5.85025e-06H11.0996C11.349 -0.000873052 11.5886 0.0973105 11.7656 0.272715C11.9428 0.448241 12.043 0.686934 12.0444 0.936166V3.11581C12.2337 3.21311 12.4181 3.31971 12.5968 3.43547L14.4908 2.34565H14.4906C14.7066 2.2216 14.9628 2.18808 15.2035 2.25224C15.4441 2.3164 15.6495 2.47297 15.775 2.68806L17.8747 6.30922H17.8746C17.9989 6.52442 18.0324 6.78017 17.9679 7.02011C17.9033 7.26005 17.7459 7.46432 17.5304 7.58814L15.6319 8.67796C15.6371 8.78455 15.6397 8.89065 15.6397 8.99611C15.6397 9.10158 15.6371 9.20768 15.6319 9.31427L17.5304 10.4041C17.7459 10.5279 17.9034 10.7323 17.9679 10.9722C18.0324 11.2122 17.9989 11.4679 17.8746 11.6831L15.7753 15.3043H15.7754C15.65 15.5191 15.4448 15.6758 15.2043 15.7401C14.964 15.8043 14.708 15.7709 14.4921 15.6471L12.5971 14.5573C12.4184 14.6729 12.2341 14.7795 12.0448 14.8768V17.0564C12.0453 17.3071 11.9457 17.5475 11.7684 17.7246C11.591 17.9017 11.3504 18.0009 11.0996 18L11.0997 17.9998ZM7.26518 16.6955H10.7348V14.0399L11.1314 13.8704C11.5017 13.7112 11.8517 13.509 12.1746 13.2678L12.5198 13.0126L14.8262 14.3397L16.556 11.3553L14.2482 10.0282L14.2964 9.60384H14.2963C14.3423 9.2027 14.3423 8.79752 14.2963 8.39625L14.2481 7.97187L16.5556 6.64449L14.8258 3.65978L12.5202 4.98729L12.1749 4.73204C11.8522 4.49097 11.5021 4.2887 11.1321 4.12949L10.7356 3.95999V1.30436H7.26528V3.95999L6.86874 4.12949H6.86862C6.49857 4.2887 6.14865 4.49097 5.82592 4.73204L5.48063 4.98729L3.17427 3.66016L1.44452 6.64452L3.75226 7.97165L3.70404 8.39602H3.70416C3.65808 8.79716 3.65808 9.20235 3.70416 9.60362L3.75238 10.028L1.4449 11.3554L3.17465 14.3401L5.48027 13.0126L5.82556 13.2678C6.14826 13.5089 6.49822 13.7112 6.86836 13.8704L7.26489 14.0399V16.6955H7.26518ZM8.99969 12.098C7.28498 12.098 5.88998 10.7083 5.88998 8.99998C5.88998 7.29177 7.28498 5.90199 8.99969 5.90199C10.7144 5.90199 12.1094 7.29164 12.1094 8.99998C12.1094 10.7082 10.7146 12.098 8.99969 12.098ZM8.99969 7.20717C8.52456 7.20918 8.06962 7.39952 7.73487 7.73665C7.39999 8.07376 7.21265 8.52992 7.21404 9.00502C7.21529 9.48012 7.40514 9.93525 7.74178 10.2705C8.07843 10.6057 8.53433 10.7937 9.00949 10.7931C9.48465 10.7925 9.94004 10.6032 10.2758 10.2671C10.6116 9.93088 10.8002 9.47523 10.8002 9.00014C10.7985 8.52378 10.6082 8.06762 10.2706 7.73151C9.93312 7.39539 9.47606 7.20681 8.99969 7.2072V7.20717Z"/>
<path d="M8.99966 12.0978C7.28495 12.0978 5.88995 10.7082 5.88995 8.99981C5.88995 7.29161 7.28495 5.90183 8.99966 5.90183C10.7144 5.90183 12.1094 7.29148 12.1094 8.99981C12.1094 10.708 10.7144 12.0978 8.99966 12.0978ZM8.99966 7.20701C8.52454 7.20902 8.0696 7.39936 7.73485 7.73649C7.39997 8.0736 7.21263 8.52976 7.21401 9.00486C7.21527 9.47996 7.40512 9.93509 7.74176 10.2703C8.0784 10.6056 8.53431 10.7935 9.00947 10.7929C9.48462 10.7923 9.94001 10.6031 10.2758 10.267C10.6115 9.93072 10.8001 9.47507 10.8001 8.99997C10.7985 8.52362 10.6081 8.06746 10.2706 7.73135C9.93309 7.39523 9.47604 7.20665 8.99966 7.20704V7.20701Z"/>
</svg>
