<svg width="18" height="18" viewBox="0 0 18 18" fill="none" xmlns="http://www.w3.org/2000/svg">
<path d="M9.00609 3.96516e-05C8.77837 -0.00309931 8.59189 0.180531 8.59145 0.408257V3.68163H5.60542C5.50098 3.68163 5.40053 3.72144 5.32463 3.79307L0.129131 8.70183C-0.14025 8.95609 0.0399555 9.40895 0.410354 9.40854H3.68274V12.3943C3.68274 12.4987 3.72284 12.5992 3.7946 12.6751L8.70337 17.8713C8.95748 18.1398 9.40935 17.9602 9.40964 17.5905V14.3176L12.3952 14.318C12.5 14.318 12.6008 14.2779 12.6769 14.2057L17.8713 9.29694C18.1397 9.04297 17.9605 8.5914 17.5909 8.59067H14.3185V5.6045C14.3184 5.49991 14.2781 5.39946 14.2062 5.3237L9.29747 0.127473C9.22142 0.0474295 9.11626 0.00148678 9.00583 5.86014e-05L9.00609 3.96516e-05ZM9.4096 1.43742L12.6034 4.81782L10.273 7.14838C10.0179 6.97217 9.72508 6.84832 9.40975 6.78968V4.09072L9.4096 1.43742ZM5.76851 4.49993H8.59159V6.7894C8.27598 6.8479 7.98277 6.97189 7.72753 7.1481L5.41425 4.83467L5.76851 4.49993ZM4.81942 5.39683L7.1491 7.72695C6.9726 7.98221 6.84833 8.27529 6.78954 8.59102H4.09189L1.43859 8.59059L4.81942 5.39683ZM13.1657 5.41281L13.5004 5.76709V8.59101H11.2106C11.152 8.2754 11.0274 7.98263 10.8511 7.72734L13.1657 5.41281ZM9.00021 7.56845C9.79579 7.56845 10.4319 8.20466 10.4319 9.00024C10.4319 9.79582 9.79579 10.432 9.00021 10.432C8.20463 10.432 7.56856 9.79582 7.56856 9.00024C7.56856 8.20466 8.20463 7.56845 9.00021 7.56845ZM4.50091 9.4089H6.7895C6.848 9.72465 6.97227 10.0177 7.14862 10.273L4.83534 12.5864L4.5009 12.2321L4.50091 9.4089ZM11.2108 9.4089H16.5626L13.1819 12.6028L10.8522 10.273C11.0285 10.0177 11.1524 9.72449 11.2109 9.4089H11.2108ZM7.72709 10.8514C7.98249 11.0279 8.27571 11.1523 8.59159 11.211V16.562L5.39741 13.1812L7.72709 10.8514ZM10.2737 10.8514L12.5869 13.1648L12.2322 13.4996L9.4096 13.5V11.2105C9.72535 11.1517 10.0184 11.0279 10.2737 10.8514L10.2737 10.8514Z"/>
</svg>
