<svg width="64" height="64" viewBox="0 0 64 64" fill="none" xmlns="http://www.w3.org/2000/svg">
<path d="M32 43.7692C29.6327 43.7692 27.4452 42.5231 26.2617 40.5C25.0782 38.4769 25.0782 35.9846 26.2617 33.9615C27.4452 31.9384 29.6327 30.6923 32 30.6923C34.3673 30.6923 36.5548 31.9384 37.7383 33.9615C38.9218 35.9846 38.9218 38.4769 37.7383 40.5C36.5548 42.5231 34.3673 43.7692 32 43.7692ZM32 33.3077C30.5795 33.3077 29.267 34.0555 28.5571 35.2692C27.8469 36.4829 27.8469 37.9786 28.5571 39.1923C29.267 40.406 30.5795 41.1538 32 41.1538C33.4205 41.1538 34.733 40.406 35.4429 39.1923C36.1531 37.9786 36.1531 36.4829 35.4429 35.2692C34.733 34.0555 33.4205 33.3077 32 33.3077ZM32 49C25.4414 49 19.1607 45.5614 14.767 39.5667V39.5658C14.2683 38.8868 14 38.0696 14 37.2309C14 36.3923 14.2683 35.575 14.767 34.8961C19.1607 28.9002 25.4414 25.462 32 25.462C38.5586 25.462 44.8393 28.9005 49.233 34.8953C49.7317 35.5748 50 36.3921 50 37.2308C50 38.0694 49.7317 38.8867 49.233 39.5659C44.8393 45.5617 38.5586 49 32 49V49ZM16.9154 38.034C20.8611 43.4187 26.2176 46.3846 32 46.3846C37.7824 46.3846 43.1385 43.4187 47.0846 38.034C47.2562 37.8002 47.3485 37.5191 47.3485 37.2305C47.3485 36.9418 47.2562 36.6607 47.0846 36.4269C43.1389 31.0428 37.7824 28.0771 32 28.0771C26.2176 28.0771 20.8615 31.043 16.9154 36.4276C16.7438 36.6614 16.6515 36.9425 16.6515 37.2312C16.6515 37.5199 16.7438 37.801 16.9154 38.0348V38.034ZM30.6748 16.3077V22.8461C30.6748 23.3135 30.9274 23.7452 31.3374 23.9787C31.7474 24.2122 32.2526 24.2122 32.6626 23.9787C33.0726 23.7452 33.3252 23.3134 33.3252 22.8461V16.3077C33.3252 15.8403 33.0726 15.4087 32.6626 15.1751C32.2526 14.9416 31.7474 14.9416 31.3374 15.1751C30.9274 15.4087 30.6748 15.8404 30.6748 16.3077ZM48.397 21.1826L44.1368 26.1909V26.1912C43.8291 26.538 43.3591 26.6997 42.8997 26.6162C42.4403 26.533 42.0593 26.2172 41.8969 25.7852C41.7345 25.3529 41.8144 24.8683 42.1075 24.5096L46.3677 19.5013V19.501C46.6754 19.1543 47.1454 18.9925 47.6048 19.076C48.0642 19.1592 48.4452 19.475 48.6076 19.907C48.77 20.3393 48.6901 20.8239 48.397 21.1826ZM17.6325 19.501L21.8927 24.5093C22.1867 24.868 22.2675 25.3532 22.1051 25.7861C21.9427 26.2186 21.5611 26.5348 21.1011 26.618C20.6411 26.7012 20.1708 26.5389 19.8634 26.1912L15.6032 21.1826C15.3092 20.8239 15.2285 20.3387 15.3909 19.9062C15.5533 19.4736 15.9348 19.1572 16.3948 19.0739C16.8548 18.991 17.3251 19.153 17.6325 19.501V19.501Z" fill="white"/>
</svg>
