<svg width="20" height="20" viewBox="0 0 20 20" fill="none" xmlns="http://www.w3.org/2000/svg">
<path d="M0.825357 16.5144L9.12584 1.57348C9.50685 0.887674 10.4932 0.887674 10.8742 1.57348L19.1746 16.5144C19.5449 17.1809 19.063 18 18.3005 18H1.69951C0.93703 18 0.455062 17.1809 0.825357 16.5144Z" fill="#FBB34C"/>
<path d="M10.8955 6.04688L10.7314 13.0674H9.32324L9.15234 6.04688H10.8955ZM9.10449 15.2207C9.10449 14.9701 9.18652 14.7604 9.35059 14.5918C9.51921 14.4186 9.75163 14.332 10.0479 14.332C10.3395 14.332 10.5697 14.4186 10.7383 14.5918C10.9069 14.7604 10.9912 14.9701 10.9912 15.2207C10.9912 15.4622 10.9069 15.6696 10.7383 15.8428C10.5697 16.0114 10.3395 16.0957 10.0479 16.0957C9.75163 16.0957 9.51921 16.0114 9.35059 15.8428C9.18652 15.6696 9.10449 15.4622 9.10449 15.2207Z" fill="white"/>
</svg>
