<?xml version="1.0" encoding="UTF-8" standalone="no"?>
<!DOCTYPE svg PUBLIC "-//W3C//DTD SVG 1.1//EN" "http://www.w3.org/Graphics/SVG/1.1/DTD/svg11.dtd">
<svg width="100%" height="100%" viewBox="0 0 16 16" version="1.1" xmlns="http://www.w3.org/2000/svg" xmlns:xlink="http://www.w3.org/1999/xlink" xml:space="preserve" xmlns:serif="http://www.serif.com/" style="fill-rule:evenodd;clip-rule:evenodd;stroke-linejoin:round;stroke-miterlimit:2;">
    <g transform="matrix(0.860039,0,0,0.860039,-0.600372,-0.339565)">
        <path d="M0.825,16.514L9.126,1.573C9.507,0.888 10.493,0.888 10.874,1.573L19.175,16.514C19.545,17.181 19.063,18 18.301,18L1.7,18C0.937,18 0.455,17.181 0.825,16.514Z" style="fill:rgb(251,179,76);fill-rule:nonzero;"/>
        <path d="M10.896,6.047L10.731,13.067L9.323,13.067L9.152,6.047L10.896,6.047ZM9.104,15.221C9.104,14.97 9.187,14.76 9.351,14.592C9.519,14.419 9.752,14.332 10.048,14.332C10.339,14.332 10.57,14.419 10.738,14.592C10.907,14.76 10.991,14.97 10.991,15.221C10.991,15.462 10.907,15.67 10.738,15.843C10.57,16.011 10.339,16.096 10.048,16.096C9.752,16.096 9.519,16.011 9.351,15.843C9.187,15.67 9.104,15.462 9.104,15.221Z" style="fill:white;fill-rule:nonzero;"/>
    </g>
</svg>
