<svg width="64" height="64" viewBox="0 0 64 64" fill="none" xmlns="http://www.w3.org/2000/svg">
<path d="M33.7954 15.0059C29.5822 15.1073 25.2717 16.9833 21.9135 20.7089C19.3907 23.5075 17.2989 26.8783 14.6705 29.4728C12.0422 32.0672 8.99672 33.9019 4.23396 33.9019C3.90807 33.8977 3.59406 34.0237 3.36238 34.2524C3.13027 34.4811 3 34.793 3 35.1189C3 35.4444 3.13027 35.7567 3.36238 35.985C3.59406 36.2137 3.90807 36.3402 4.23396 36.3355C9.65437 36.3355 13.4722 34.0743 16.3809 31.2027C19.2902 28.3308 21.4127 24.8831 23.719 22.3247C27.9037 17.6817 33.4927 16.4876 38.1852 18.1234C42.3432 19.5729 45.855 23.2566 46.9682 29.1689C43.7687 27.5441 40.702 27.3239 38.1475 28.2184C35.0019 29.32 32.6864 31.8964 31.4557 34.8341C30.2252 37.7714 30.0355 41.1313 31.3798 43.9399C32.724 46.7485 35.6867 48.8418 40.0862 49.0727C40.1117 49.0735 40.1371 49.0735 40.1626 49.0727H57.766C58.0919 49.0773 58.4059 48.9509 58.6376 48.7222C58.8697 48.4939 59 48.1816 59 47.8561C59 47.5302 58.8697 47.2183 58.6376 46.9896C58.4059 46.7609 58.0919 46.6349 57.766 46.6391H40.1626C36.4692 46.4295 34.549 44.9086 33.585 42.8943C32.6153 40.8686 32.6943 38.1634 33.6991 35.7655C34.7035 33.3671 36.5774 31.3286 38.9456 30.4994C41.3138 29.6703 44.2651 29.9393 47.7853 32.4577C48.1702 32.7318 48.679 32.759 49.0902 32.5268C49.5018 32.2947 49.7416 31.8449 49.7055 31.374C49.1186 23.2552 44.6075 17.7833 38.9838 15.8236C37.5781 15.3335 36.1225 15.0543 34.6306 15.0059C34.351 14.997 34.0752 14.9991 33.7942 15.0059L33.7954 15.0059Z" fill="white"/>
</svg>
