<svg width="64" height="64" viewBox="0 0 64 64" fill="none" xmlns="http://www.w3.org/2000/svg">
<g clip-path="url(#clip0_318_3)">
<path d="M55.0334 26.0279C55.0334 31.994 50.2296 36.8306 44.3037 36.8306C38.3779 36.8306 33.574 31.994 33.574 26.0279C33.574 20.0617 38.3779 15.2252 44.3037 15.2252C50.2296 15.2252 55.0334 20.0617 55.0334 26.0279Z" fill="url(#paint0_linear_318_3)"/>
<path d="M42.3834 48.7746C47.2577 48.7746 51.21 44.7963 51.21 39.8879C51.21 34.9804 47.2577 31.0021 42.3834 31.0021C42.3527 31.0021 42.3229 31.0063 42.2931 31.0063C41.5076 23.9196 35.5407 18.4096 28.2925 18.4096C22.5681 18.4096 17.645 21.8471 15.4391 26.7829C15.3696 26.7813 15.3009 26.7779 15.2305 26.7779C9.19742 26.7779 4.30652 31.7021 4.30652 37.7763C4.30652 43.8504 9.19742 48.7746 15.2305 48.7746" fill="white"/>
<path d="M37.2272 34.9603C37.1935 34.9603 37.1599 34.9603 37.0926 34.9603C33.3242 34.9603 30.2456 38.0598 30.2288 41.8708C30.2456 45.6817 33.3074 48.7644 37.0926 48.7813L54.1512 48.7813C57.213 48.7813 59.7028 46.2745 59.7028 43.1919C59.7028 40.1093 57.213 37.6025 54.1512 37.6025C54.1343 37.6195 54.1007 37.6195 54.1007 37.6195C53.6128 33.1649 49.8445 29.7097 45.3022 29.7097C41.7021 29.7097 38.6235 31.8607 37.2272 34.9603Z" fill="url(#paint1_linear_318_3)"/>
</g>
<defs>
<linearGradient id="paint0_linear_318_3" x1="36.7168" y1="33.6663" x2="51.9938" y2="18.4925" gradientUnits="userSpaceOnUse">
<stop stop-color="#FDB727"/>
<stop offset="1" stop-color="#FFCE22"/>
</linearGradient>
<linearGradient id="paint1_linear_318_3" x1="36.3766" y1="50.906" x2="53.3138" y2="34.0833" gradientUnits="userSpaceOnUse">
<stop stop-color="#D0E9F9"/>
<stop offset="1" stop-color="#E1EFFA"/>
</linearGradient>
<clipPath id="clip0_318_3">
<rect width="56" height="64" fill="white" transform="translate(4)"/>
</clipPath>
</defs>
</svg>
