<svg width="64" height="64" viewBox="0 0 64 64" fill="none" xmlns="http://www.w3.org/2000/svg">
<g clip-path="url(#clip0_318_5)">
<path d="M14.9141 15.3087C14.0643 15.538 13.7522 16.576 14.1743 17.3047C14.5771 17.9999 15.1443 18.6311 15.6261 19.2734L18.3154 22.8594L23.3253 29.5391L24.591 31.2266C24.7457 31.4329 25.0596 31.7247 25.0596 32C25.0596 32.3327 24.6212 32.7328 24.4325 32.9844L22.6395 35.375L15.7316 44.5859L14.6239 46.0625C14.4137 46.3429 14.1487 46.6348 14.0456 46.9766C13.7567 47.9349 14.4755 48.8444 15.4766 48.7214C15.9231 48.6665 16.342 48.4157 16.7422 48.2268C17.3257 47.9514 17.9189 47.6971 18.5 47.4166C20.3585 46.5197 22.2495 45.6797 24.125 44.8186C28.0896 42.9984 32.0433 41.1543 36.0078 39.3342C38.0462 38.3984 40.1094 37.501 42.125 36.5172C44.0682 35.5687 46.0494 34.6524 48.0313 33.7876C48.7686 33.466 49.9002 33.1552 49.9926 32.2109C50.1028 31.0854 49.2347 30.7814 48.3828 30.3656C46.4632 29.4287 44.5047 28.5247 42.5469 27.6704C35.7119 24.6881 29.0381 21.3345 22.2266 18.2988C20.5789 17.5646 18.9258 16.8131 17.3047 16.0218C16.6098 15.6827 15.7184 15.0918 14.9141 15.3087Z" fill="white"/>
</g>
<defs>
<clipPath id="clip0_318_5">
<rect width="36" height="36" fill="white" transform="translate(14 14)"/>
</clipPath>
</defs>
</svg>
