<?xml version="1.0" standalone="no"?>
<!DOCTYPE svg PUBLIC "-//W3C//DTD SVG 20010904//EN"
 "http://www.w3.org/TR/2001/REC-SVG-20010904/DTD/svg10.dtd">
<svg version="1.0" xmlns="http://www.w3.org/2000/svg"
 width="700.000000pt" height="700.000000pt" viewBox="0 0 700.000000 700.000000"
 preserveAspectRatio="xMidYMid meet">
<metadata>
Created by potrace 1.14, written by Peter Selinger 2001-2017
</metadata>
<g transform="translate(0.000000,700.000000) scale(0.100000,-0.100000)"
fill="#000000" stroke="none">
<path d="M1222 6988 c-515 -65 -968 -430 -1141 -921 -17 -49 -41 -134 -53
-190 l-23 -102 0 -2275 0 -2275 23 -102 c42 -193 109 -349 219 -516 62 -94
267 -299 363 -362 163 -108 343 -183 535 -222 86 -17 203 -18 2360 -18 l2270
0 102 23 c291 64 500 178 708 387 209 208 323 417 387 708 l23 102 0 2275 0
2275 -23 102 c-60 275 -174 490 -362 686 -203 213 -431 341 -728 409 l-97 22
-2245 2 c-1326 1 -2275 -2 -2318 -8z m2785 -1553 c181 -61 314 -175 402 -345
56 -106 74 -184 74 -310 0 -126 -18 -204 -74 -310 -88 -170 -218 -281 -404
-347 l-80 -28 -910 -3 c-643 -2 -921 0 -948 8 -132 39 -184 197 -101 308 55
71 -12 66 994 72 898 5 905 5 951 26 63 29 120 83 149 141 21 40 25 62 25 133
0 71 -4 93 -25 133 -51 101 -147 159 -260 159 -128 0 -215 -61 -280 -198 -31
-66 -48 -89 -80 -110 -91 -60 -214 -36 -270 53 -40 63 -45 105 -21 183 70 225
273 403 521 456 96 20 240 11 337 -21z m947 -1759 c244 -74 428 -259 493 -497
28 -101 23 -272 -10 -374 -95 -288 -359 -484 -655 -485 -260 0 -501 151 -619
389 -58 117 -58 212 0 278 106 121 285 82 341 -75 42 -119 153 -197 281 -196
257 1 384 316 201 499 -92 93 61 85 -1710 85 -1058 0 -1573 3 -1599 11 -77 21
-147 111 -147 189 0 45 30 108 68 143 63 60 -35 57 1702 54 1502 -2 1598 -4
1654 -21z m-1806 -782 c317 -64 552 -351 552 -674 0 -108 -23 -202 -75 -308
-82 -166 -228 -289 -413 -350 -99 -32 -270 -36 -372 -8 -185 50 -360 194 -441
361 -53 110 -62 180 -31 241 51 100 160 140 257 95 53 -24 72 -47 120 -144 31
-64 51 -90 88 -118 152 -114 355 -66 445 106 37 71 37 179 0 250 -34 64 -90
118 -153 147 l-50 23 -611 5 -610 5 -41 27 c-126 83 -104 281 37 342 53 23
1185 23 1298 0z"/>
</g>
</svg>
